<svg xmlns="http://www.w3.org/2000/svg" viewBox="0 0 1500 1499.999933">
  <style>
    path { fill: #111111; }
    @media (prefers-color-scheme: dark) { path { fill: #ffffff; } }
  </style>
  <defs>
    <clipPath id="c">
      <path d="M 246.484375 243.425781 L 1253.730469 243.425781 L 1253.730469 1256.457031 L 246.484375 1256.457031 Z" clip-rule="nonzero"/>
    </clipPath>
  </defs>
  <g clip-path="url(#c)">
    <path fill-rule="nonzero" d="M 562.695312 907.28125 C 514.085938 881.21875 396.300781 818.089844 368.757812 795.410156 C 351.777344 781.4375 345.167969 771.671875 345.152344 765.117188 C 345.152344 762.648438 346.535156 760.578125 348.84375 758.890625 C 352.042969 756.558594 356.808594 754.898438 362.398438 753.796875 C 381.738281 750.015625 408.554688 753.210938 419.015625 759.636719 C 433.589844 783.507812 445.734375 801.542969 451.113281 804.4375 C 442.617188 780.46875 429.820312 749.761719 426.273438 724.375 C 422.824219 699.628906 421.839844 674.320312 423.527344 648.550781 C 424.203125 638.359375 425.214844 628.765625 426.183594 619.714844 C 431 574.277344 434.464844 541.792969 390.460938 495.28125 C 384.738281 489.226562 377.890625 482.316406 370.613281 474.960938 C 321.140625 424.960938 250.707031 353.765625 261.152344 267.800781 C 315.074219 306.644531 342.925781 327.1875 407.71875 334.761719 C 431.320312 337.511719 456.527344 336.820312 478.058594 329.164062 C 516.382812 315.507812 544.5625 284.574219 556.761719 269.183594 C 585.796875 331.273438 570.703125 413.90625 557.585938 485.699219 C 555.382812 497.800781 553.21875 509.597656 551.347656 520.890625 L 550.988281 518.554688 C 548.242188 492 533.292969 467.066406 523.683594 458.480469 C 543.953125 487.382812 544.246094 547.246094 546.410156 585.914062 C 548.929688 630.609375 564.742188 669.382812 589.390625 702.851562 C 598.3125 714.96875 608.402344 726.378906 619.417969 737.101562 C 631.074219 748.449219 648.730469 762.6875 668.375 775.730469 C 694.527344 793.078125 719.457031 807.15625 744.265625 818.808594 C 813.890625 851.503906 901.886719 873.054688 977.726562 889.058594 C 1010.898438 896.054688 1096.996094 920.363281 1158.511719 953.554688 C 1194.910156 973.207031 1222.335938 995.527344 1223.371094 1018.152344 C 1224.523438 1043.605469 1204.757812 1067.1875 1177.46875 1086.679688 C 1137.429688 1115.277344 1081.878906 1134.636719 1050.003906 1139.148438 C 1031.6875 1141.75 1013.195312 1143.371094 994.636719 1144.058594 C 982.558594 1144.5 970.476562 1144.539062 958.371094 1144.191406 C 968.617188 1130.5 979.1875 1114.320312 979.929688 1104.875 C 941.871094 1141.261719 909.90625 1170.003906 864.242188 1199.265625 C 825.28125 1224.238281 781.023438 1245.164062 744.679688 1242.683594 C 727.714844 1241.515625 717.398438 1236.394531 712.25 1228.964844 C 708.503906 1223.5625 707.335938 1216.6875 708.210938 1209.125 C 709.167969 1200.882812 712.5 1191.832031 717.585938 1182.796875 C 731.828125 1157.542969 759.238281 1133.378906 786.851562 1127.394531 C 807.09375 1134.054688 858.996094 1138.113281 869.710938 1127.019531 C 850.992188 1126.398438 825.226562 1126.160156 785.628906 1112.675781 C 726.160156 1092.4375 669.730469 1062.9375 619.5 1025.476562 C 570.769531 989.117188 527.917969 945.246094 493.855469 895.03125 C 490.457031 890.042969 487.257812 885.117188 484.230469 880.289062 C 512.519531 895.828125 553.472656 909.324219 562.695312 907.28125 Z M 849.492188 843.15625 C 822.199219 835.515625 746.46875 809.984375 712.699219 787.941406 C 727.59375 784.449219 741.570312 775.574219 755.640625 766.617188 C 778.648438 751.992188 801.984375 737.167969 827.550781 750.769531 C 865.59375 771.007812 855.625 821.660156 849.492188 843.15625 Z M 1187.714844 1095.996094 C 1193.289062 1108.085938 1206.632812 1127.722656 1213.546875 1132.421875 C 1206.738281 1121.804688 1197.832031 1107.753906 1195.359375 1090.117188 C 1220.78125 1069.574219 1238.171875 1044.957031 1236.910156 1017.554688 C 1236.273438 1003.515625 1228.519531 990.085938 1215.964844 977.492188 C 1227.179688 964.300781 1238.597656 955.117188 1253.757812 947.238281 C 1236.328125 950.964844 1222.746094 958.582031 1210.03125 971.890625 C 1197.898438 961.117188 1182.367188 950.980469 1165.015625 941.609375 C 1102.1875 907.703125 1014.351562 882.890625 980.527344 875.761719 C 940.914062 867.402344 901.410156 858.167969 862.488281 846.980469 C 869.40625 822.773438 880.914062 763.816406 833.9375 738.800781 C 801.347656 721.457031 774.664062 738.429688 748.339844 755.164062 C 714.078125 776.953125 704.867188 785.246094 675.054688 764.835938 C 645.808594 744.8125 620.042969 721.589844 600.316406 694.808594 C 569.453125 652.917969 553.351562 602.132812 561.96875 541.046875 C 564.328125 524.25 567.570312 506.546875 570.925781 488.140625 C 585.132812 410.402344 601.589844 320.296875 563.734375 253.046875 L 558.328125 243.4375 L 552.183594 252.632812 C 552.089844 252.765625 521.253906 299.34375 473.464844 316.371094 C 454.113281 323.269531 431.039062 323.839844 409.285156 321.292969 C 344.542969 313.730469 305.648438 285.066406 251.222656 245.695312 L 249.367188 255.355469 C 230.609375 352.796875 307.546875 430.535156 360.976562 484.542969 C 367.878906 491.511719 374.386719 498.078125 380.570312 504.636719 C 420.316406 546.636719 417.140625 576.492188 412.707031 618.253906 C 411.726562 627.359375 410.703125 637.019531 410.011719 647.636719 C 408.25 674.414062 409.269531 700.664062 412.839844 726.246094 C 413.664062 732.140625 414.621094 738.003906 415.707031 743.84375 C 400.136719 739 377.105469 737.089844 359.808594 740.472656 C 352.363281 741.933594 345.738281 744.363281 340.839844 747.929688 C 335.050781 752.152344 331.585938 757.804688 331.585938 765.128906 C 331.613281 775.546875 339.617188 789.015625 360.15625 805.921875 C 375.710938 818.742188 417.804688 843.34375 460.855469 867.351562 C 464.039062 873.097656 467.453125 878.921875 471.089844 884.828125 C 474.886719 890.996094 478.734375 896.941406 482.613281 902.675781 C 517.539062 954.148438 561.460938 999.121094 611.414062 1036.371094 C 658.433594 1071.457031 710.828125 1099.710938 766.101562 1120.132812 C 741.265625 1131.347656 718.578125 1153.363281 705.757812 1176.121094 C 699.824219 1186.632812 695.921875 1197.433594 694.738281 1207.558594 C 693.503906 1218.375 695.347656 1228.417969 701.085938 1236.699219 C 708.519531 1247.433594 722.175781 1254.761719 743.75 1256.234375 C 810.464844 1260.796875 899.523438 1194.117188 943.382812 1157.15625 C 960.628906 1158.085938 977.910156 1158.246094 995.15625 1157.621094 C 1014.125 1156.917969 1033.054688 1155.246094 1051.890625 1152.578125 C 1095.21875 1146.4375 1152.65625 1121.753906 1187.714844 1095.996094"/>
  </g>
</svg>